<svg xmlns="http://www.w3.org/2000/svg" viewBox="0 0 120.5 120.5"><title>bws-brand</title><g id="Layer_2" data-name="Layer 2"><g id="Layer_1-2" data-name="Layer 1"><path d="M60.25,0A60.25,60.25,0,1,0,120.5,60.25,60.32,60.32,0,0,0,60.25,0Zm0,6a54.34,54.34,0,0,1,52.13,39.26H95.2a10.12,10.12,0,0,0-5,1.1A7.51,7.51,0,0,0,87.32,49a8.84,8.84,0,0,0-1.17,3.16,7.55,7.55,0,0,0-.08.95,6.45,6.45,0,0,0,.68,3,26.13,26.13,0,0,0,2.08,3.27l4.47,6q.56.76.78,1.11a1.89,1.89,0,0,1,.22,1,1,1,0,0,1-.85.79,9.23,9.23,0,0,1-2.19.2H77.67l9.16-23.23H78.24L72.48,64.12h-.12L71,45.26h-8l-6.27,19h-.12l-.81-19H47.3l2.62,23.23H43.37c0-.19.09-.38.12-.58a8.05,8.05,0,0,0,.11-1.29q0-4.36-4.15-7.67a20.21,20.21,0,0,0,3.39-3.18,7,7,0,0,0,1.53-3.56A7.53,7.53,0,0,0,44.43,51a5.29,5.29,0,0,0-1.79-4.13q-1.79-1.6-6.06-1.6H8.12A54.34,54.34,0,0,1,60.25,6Zm0,108.5A54.28,54.28,0,0,1,6.62,52H31.88q1.46,0,2.12.07a1.86,1.86,0,0,1,1,.36,1.19,1.19,0,0,1,.35,1,3.45,3.45,0,0,1-1.4,2,30.74,30.74,0,0,1-3,2.14l-2.75,1.87a20,20,0,0,1,2.81,1.76,13,13,0,0,1,2.64,2.56,4.75,4.75,0,0,1,1.12,2.91,1.63,1.63,0,0,1-1.14,1.48,8.61,8.61,0,0,1-2.53.31H26.64L28.8,52.94H20.95l-3.12,22.3h41.4l6-17.47h.11l1.1,17.47H94.14a10.12,10.12,0,0,0,5-1.1A7.51,7.51,0,0,0,102,71.47a8.84,8.84,0,0,0,1.17-3.16q.07-.66.07-1a6.51,6.51,0,0,0-.71-3,22.07,22.07,0,0,0-2.08-3.16L95.86,55.1A10.28,10.28,0,0,1,95.08,54a2,2,0,0,1-.21-1,1,1,0,0,1,.85-.79A9.42,9.42,0,0,1,97.91,52h16A54.28,54.28,0,0,1,60.25,114.5Z"/></g></g></svg>