<?xml version="1.0" encoding="UTF-8"?>
<svg width="121px" height="121px" viewBox="0 0 121 121" version="1.1" xmlns="http://www.w3.org/2000/svg" xmlns:xlink="http://www.w3.org/1999/xlink">
    <!-- Generator: Sketch 47.1 (45422) - http://www.bohemiancoding.com/sketch -->
    <title>Shape</title>
    <desc>Created with Sketch.</desc>
    <defs></defs>
    <g id="Symbols" stroke="none" stroke-width="1" fill="none" fill-rule="evenodd">
        <g id="bws-brand" fill-rule="nonzero" fill="#7A9FC3">
            <g id="Shape">
                <path d="M60.25,0 C26.9748438,-2.03751568e-15 4.07503135e-15,26.9748438 0,60.25 C-4.07503135e-15,93.5251562 26.9748438,120.5 60.25,120.5 C93.5251562,120.5 120.5,93.5251562 120.5,60.25 C120.461426,26.9908349 93.5091651,0.038574168 60.25,0 Z M60.25,6 C84.4252295,6.03365965 105.671102,22.0342914 112.38,45.26 L95.2,45.26 C93.4666015,45.1920665 91.744841,45.5708539 90.2,46.36 C89.0239028,46.9705062 88.0302788,47.8813282 87.32,49 C86.730995,49.9685721 86.33378,51.041392 86.15,52.16 C86.1033467,52.4746651 86.0766268,52.7919642 86.07,53.11 C86.0514023,54.1502068 86.2847033,55.179476 86.75,56.11 C87.3614343,57.2499841 88.0566793,58.3429895 88.83,59.38 L93.3,65.38 C93.6733333,65.8866667 93.9333333,66.2566667 94.08,66.49 C94.2439486,66.796741 94.3200758,67.1427737 94.3,67.49 C94.2140523,67.9076108 93.8727748,68.2247981 93.45,68.28 C92.7305788,68.4337031 91.9953618,68.5008462 91.26,68.48 L77.67,68.48 L86.83,45.25 L78.24,45.25 L72.48,64.12 L72.36,64.12 L71,45.26 L63,45.26 L56.73,64.26 L56.61,64.26 L55.8,45.26 L47.3,45.26 L49.92,68.49 L43.37,68.49 C43.37,68.3 43.46,68.11 43.49,67.91 C43.5612417,67.4836507 43.5980273,67.0522559 43.6,66.62 C43.6,63.7133333 42.2166667,61.1566667 39.45,58.95 C40.6985389,58.0239035 41.8360601,56.9568482 42.84,55.77 C43.6748231,54.7509414 44.2051433,53.5169936 44.37,52.21 C44.4224659,51.8089328 44.4425309,51.4042902 44.43,51 C44.4780048,49.4254873 43.8218173,47.9114905 42.64,46.87 C41.4466667,45.8033333 39.4266667,45.27 36.58,45.27 L8.12,45.27 C14.8252207,22.0403283 36.071985,6.03494884 60.25,6 Z M60.25,114.5 C44.4229338,114.493007 29.3872224,107.578452 19.0806158,95.56721 C8.77400921,83.555968 4.2231949,67.6445326 6.62,52 L31.88,52 C32.8533333,52 33.56,52.0233333 34,52.07 C34.3612528,52.0901834 34.7087761,52.2152918 35,52.43 C35.266803,52.6901474 35.3963398,53.0602526 35.35,53.43 C35.1426898,54.2450161 34.6448284,54.9562467 33.95,55.43 C32.9936948,56.2026844 31.9918952,56.9173015 30.95,57.57 L28.2,59.44 C29.1837659,59.9478795 30.1236616,60.5365687 31.01,61.2 C32.0068579,61.9239281 32.8957492,62.7858833 33.65,63.76 C34.3401413,64.5763397 34.734746,65.6016074 34.77,66.67 C34.7384417,67.3537589 34.2830556,67.9449619 33.63,68.15 C32.8067176,68.3782834 31.9540428,68.4827614 31.1,68.46 L26.64,68.46 L28.8,52.94 L20.95,52.94 L17.83,75.24 L59.23,75.24 L65.23,57.77 L65.34,57.77 L66.44,75.24 L94.14,75.24 C95.8733985,75.3079335 97.595159,74.9291461 99.14,74.14 C100.312499,73.5183322 101.299324,72.5970658 102,71.47 C102.589005,70.5014279 102.98622,69.428608 103.17,68.31 C103.216667,67.87 103.24,67.5366667 103.24,67.31 C103.246942,66.2675773 103.003448,65.2387305 102.53,64.31 C101.928389,63.1990749 101.2325,62.1418586 100.45,61.15 L95.86,55.1 C95.5762055,54.7507997 95.3156451,54.3833426 95.08,54 C94.9245934,53.6904731 94.8522317,53.3458937 94.87,53 C94.9559477,52.5823892 95.2972252,52.2652019 95.72,52.21 C96.4392919,52.0547017 97.1743034,51.9842212 97.91,52 L113.91,52 C116.307597,67.6497106 111.752951,83.5662215 101.439612,95.5785889 C91.1262744,107.590956 76.0823059,114.501755 60.25,114.5 L60.25,114.5 Z"></path>
            </g>
        </g>
    </g>
</svg>