<?xml version="1.0" encoding="UTF-8"?>
<svg width="149px" height="36px" viewBox="0 0 149 36" version="1.1" xmlns="http://www.w3.org/2000/svg" xmlns:xlink="http://www.w3.org/1999/xlink">
    <!-- Generator: Sketch 47.1 (45422) - http://www.bohemiancoding.com/sketch -->
    <title>Linkedin-logo</title>
    <desc>Created with Sketch.</desc>
    <defs></defs>
    <g id="Symbols" stroke="none" stroke-width="1" fill="none" fill-rule="evenodd">
        <g id="Linkedin-logo" fill-rule="nonzero">
            <g id="Shape">
                <path d="M146.34,29.05 C146.516902,29.0503459 146.686057,28.9774548 146.807299,28.8486346 C146.928542,28.7198145 146.991057,28.5465563 146.98,28.37 C146.98,27.89 146.69,27.66 146.1,27.66 L145.1,27.66 L145.1,30.17 L145.46,30.17 L145.46,29.08 L146,29.08 L146.69,30.16 L147,30.16 L146.26,29.04 L146.34,29.05 Z M145.92,28.8 L145.5,28.8 L145.5,28 L146,28 C146.27,28 146.59,28 146.59,28.4 C146.59,28.8 146.31,28.8 145.92,28.8 L145.92,28.8 Z" fill="#231F20"></path>
                <path d="M146,26.55 C144.691085,26.55 143.63,27.6110851 143.63,28.92 C143.63,30.2289149 144.691085,31.29 146,31.29 C147.308915,31.29 148.37,30.2289149 148.37,28.92 C148.375387,28.289801 148.127421,27.6838475 147.681787,27.2382132 C147.236153,26.792579 146.630199,26.5446134 146,26.55 L146,26.55 Z M146,31 C145.161779,31.0244245 144.392411,30.5383031 144.054572,29.7707907 C143.716733,29.0032783 143.877859,28.1075778 144.461995,27.5059174 C145.046131,26.904257 145.936679,26.7167338 146.71384,27.0317453 C147.491,27.3467568 147.999644,28.1014236 148,28.94 C148.01623,29.4807508 147.812703,30.0050103 147.435857,30.3931619 C147.059011,30.7813136 146.540994,31.0002435 146,31 Z" fill="#231F20"></path>
                <polygon fill="#91B7DC" points="0 5.32 5.55 5.32 5.55 25.55 15.83 25.55 15.83 30.68 0 30.68"></polygon>
                <path d="M18.29,13.49 L23.63,13.49 L23.63,30.67 L18.29,30.67 L18.29,13.49 Z M21,4.95 C22.7049464,4.97773175 24.0651639,6.38131375 24.0393934,8.08629093 C24.0136229,9.79126811 22.6116066,11.1530993 20.9066009,11.1292901 C19.2015952,11.1054809 17.8381521,9.70503196 17.86,8 C17.8874104,6.29178304 19.2917082,4.92773575 21,4.95 L21,4.95 Z" fill="#91B7DC"></path>
                <polygon fill="#91B7DC" points="45.94 5.32 51.27 5.32 51.27 20.48 57.32 13.48 63.86 13.48 56.86 21.43 63.71 30.68 57.01 30.68 51.34 22.18 51.27 22.18 51.27 30.68 45.94 30.68"></polygon>
                <path d="M26.58,13.49 L31.7,13.49 L31.7,15.84 L31.77,15.84 C32.8146845,14.0570418 34.7549721,12.9927652 36.82,13.07 C42.23,13.07 43.22,16.63 43.22,21.25 L43.22,30.67 L37.89,30.67 L37.89,22.32 C37.89,20.32 37.89,17.77 35.11,17.77 C32.33,17.77 31.91,19.94 31.91,22.18 L31.91,30.68 L26.58,30.68 L26.58,13.49 Z" fill="#91B7DC"></path>
                <path d="M75.09,20.08 C75.1094202,19.2051865 74.7697556,18.36058 74.1500727,17.7427864 C73.5303898,17.1249928 72.6847502,16.7879087 71.81,16.81 C69.8567154,16.6663755 68.1542722,18.1275275 68,20.08 L75.09,20.08 Z M79.61,27.69 C77.8160198,29.8657889 75.1399816,31.1212142 72.32,31.11 C66.98,31.11 62.71,27.55 62.71,22.03 C62.71,16.51 67,13 72.32,13 C77.32,13 80.43,16.56 80.43,22.07 L80.43,23.74 L68,23.74 C68.3213349,25.6922498 70.0216559,27.1162687 72,27.09 C73.5634051,27.1045093 75.0247613,26.3153014 75.87,25 L79.61,27.69 Z" fill="#91B7DC"></path>
                <path d="M91.55,17.64 C90.3776282,17.555612 89.2274766,17.9911408 88.4050521,18.8308997 C87.5826277,19.6706586 87.1711803,20.8296431 87.28,22 C87.28,24.3582559 89.1917441,26.27 91.55,26.27 C93.9082559,26.27 95.82,24.3582559 95.82,22 C95.9351156,20.8263537 95.526472,19.6617174 94.7032671,18.8173058 C93.8800622,17.9728942 92.7261941,17.5347667 91.55,17.62 L91.55,17.64 Z M100.73,30.62 L95.82,30.62 L95.82,28.39 L95.75,28.39 C94.5026142,30.0704168 92.5426112,31.072607 90.45,31.1 C85.32,31.1 81.94,27.4 81.94,22.17 C81.94,17.36 84.94,12.95 89.84,12.95 C92.05,12.95 94.11,13.55 95.32,15.23 L95.39,15.23 L95.39,5.32 L100.73,5.32 L100.73,30.62 Z" fill="#91B7DC"></path>
                <path d="M139.4,-3.33066907e-16 L108.72,-3.33066907e-16 C108.022467,-0.00800203353 107.35033,0.261440966 106.851473,0.749045275 C106.352616,1.23664958 106.067911,1.9024662 106.06,2.6 L106.06,33.4 C106.067911,34.0975338 106.352616,34.7633504 106.851473,35.2509547 C107.35033,35.738559 108.022467,36.008002 108.72,36 L139.4,36 C140.097533,36.008002 140.76967,35.738559 141.268527,35.2509547 C141.767384,34.7633504 142.052089,34.0975338 142.06,33.4 L142.06,2.6 C142.052089,1.9024662 141.767384,1.23664958 141.268527,0.749045275 C140.76967,0.261440966 140.097533,-0.00800203353 139.4,-3.33066907e-16 Z" fill="#7EA7CE"></path>
                <path d="M111.4,13.5 L116.74,13.5 L116.74,30.68 L111.4,30.68 L111.4,13.5 Z M114.08,5 C115.792083,5 117.18,6.38791728 117.18,8.1 C117.18,9.81208272 115.792083,11.2 114.08,11.2 C112.367917,11.2 110.98,9.81208272 110.98,8.1 C110.98,6.38791728 112.367917,5 114.08,5 L114.08,5 Z" fill="#FFFFFF"></path>
                <path d="M120.1,13.5 L125.22,13.5 L125.22,15.85 L125.29,15.85 C126.334684,14.0670418 128.274972,13.0027652 130.34,13.08 C135.75,13.08 136.74,16.64 136.74,21.26 L136.74,30.68 L131.4,30.68 L131.4,22.32 C131.4,20.32 131.4,17.76 128.62,17.76 C125.84,17.76 125.42,19.93 125.42,22.17 L125.42,30.67 L120.1,30.67 L120.1,13.5 Z" fill="#FFFFFF"></path>
            </g>
        </g>
    </g>
</svg>