<?xml version="1.0" encoding="UTF-8"?>
<svg width="142px" height="42px" viewBox="0 0 142 42" version="1.1" xmlns="http://www.w3.org/2000/svg" xmlns:xlink="http://www.w3.org/1999/xlink">
    <!-- Generator: Sketch 47.1 (45422) - http://www.bohemiancoding.com/sketch -->
    <title>upwork-seeklogo.com</title>
    <desc>Created with Sketch.</desc>
    <defs></defs>
    <g id="Symbols" stroke="none" stroke-width="1" fill="none" fill-rule="evenodd">
        <g id="upwork-logo" fill-rule="nonzero">
            <g id="upwork-seeklogo.com">
                <path d="M38.6679244,26.4557405 C36.3683625,26.4557405 34.2138177,25.467134 32.2560826,23.8580192 L32.7325683,21.5863277 L32.7532853,21.502191 C33.177979,19.0832603 34.5245694,15.0236634 38.6679244,15.0236634 C41.7754404,15.0236634 44.3028871,17.5898334 44.3028871,20.7449605 C44.2925286,23.8895705 41.765082,26.4557405 38.6679244,26.4557405 L38.6679244,26.4557405 Z M38.6679244,9.2287467 C33.3747885,9.2287467 29.2728671,12.7204207 27.6051669,18.4627519 C25.0570035,14.5819456 23.1303435,9.92287466 22.0012793,6 L16.3041664,6 L16.3041664,21.0499561 C16.3041664,24.0157756 13.9217373,26.4347064 11.0006721,26.4347064 C8.07960691,26.4347064 5.69717786,24.0157756 5.69717786,21.0499561 L5.69717786,6 L6.49099919e-05,6 L6.49099919e-05,21.0499561 C-0.0206518645,27.212971 4.92029882,32.2716915 10.9903137,32.2716915 C17.0603286,32.2716915 22.0012793,27.212971 22.0012793,21.0499561 L22.0012793,18.5258545 C23.1096267,20.8711656 24.4665755,23.2375109 26.113559,25.340929 L22.6227825,42 L28.4545545,42 L30.9820009,29.9158632 C33.1986959,31.3567046 35.7468592,32.2611744 38.6679244,32.2611744 C44.9140319,32.2611744 50,27.0657318 50,20.7239263 C50,14.392638 44.9140319,9.2287467 38.6679244,9.2287467 L38.6679244,9.2287467 Z" id="Shape" fill="#6FDA44"></path>
                <path d="M67.3322733,10.2162508 L71.0411082,24.8650032 L75.1260502,10.2162508 L79.9945492,10.2162508 L73.7156483,31.3857965 L68.8471494,31.3857965 L64.9920508,16.6449136 L61.1473995,31.3755597 L56.2789005,31.3755597 L50,10.2060141 L54.8684986,10.2060141 L58.9534407,24.8547665 L62.6622756,10.2060141 L67.3322733,10.2060141 L67.3322733,10.2162508 Z M91.6434247,9.5815739 C85.3227344,9.5815739 80.2034976,14.6078055 80.2034976,20.7907869 C80.2034976,26.9840051 85.3331819,32 91.6434247,32 C97.9641153,32 103.0938,26.9840051 103.0938,20.7907869 C103.0938,14.5975688 97.9641153,9.5815739 91.6434247,9.5815739 Z M91.6434247,27.3934742 C87.9241426,27.3934742 84.915285,24.4452975 84.915285,20.8010237 C84.915285,17.1567498 87.9345898,14.2085733 91.6434247,14.2085733 C95.3627071,14.2085733 98.3715647,17.1567498 98.3715647,20.8010237 C98.3715647,24.4350608 95.3627071,27.3934742 91.6434247,27.3934742 Z M116.999318,14.9558541 C113.729275,14.9558541 111.086078,17.5559821 111.086078,20.74984 L111.086078,31.3755597 L106.186237,31.3755597 L106.186237,10.2162508 L111.086078,10.2162508 L111.086078,13.4715291 C111.086078,13.4715291 113.175562,10.2060141 117.469453,10.2060141 L118.973881,10.2060141 L118.973881,14.9558541 L116.999318,14.9558541 Z M133.443561,19.971849 C136.922553,18.0473449 139.28367,14.3928343 139.28367,10.2060141 L134.383829,10.2060141 C134.383829,13.7376839 131.458551,16.6039667 127.85419,16.6039667 L127.196003,16.6039667 L127.196003,0 L122.296161,0 L122.296161,31.3755597 L127.196003,31.3755597 L127.196003,21.4049904 L127.781058,21.4049904 C128.26164,21.4049904 128.888485,21.7120921 129.170565,22.0908509 L136.128549,31.3755597 L142,31.3755597 L133.443561,19.971849 Z" id="Shape" fill="#000000"></path>
            </g>
        </g>
    </g>
</svg>