<?xml version="1.0" encoding="UTF-8"?>
<svg width="149px" height="31px" viewBox="0 0 149 31" version="1.1" xmlns="http://www.w3.org/2000/svg" xmlns:xlink="http://www.w3.org/1999/xlink">
    <!-- Generator: Sketch 47.1 (45422) - http://www.bohemiancoding.com/sketch -->
    <title>Group</title>
    <desc>Created with Sketch.</desc>
    <defs></defs>
    <g id="Page-1" stroke="none" stroke-width="1" fill="none" fill-rule="evenodd">
        <g id="White-Landing-" transform="translate(-355.000000, -710.000000)" fill-rule="nonzero" fill="#91B7DC">
            <g id="Trusted-by-the-best" transform="translate(130.000000, 689.000000)">
                <g id="Logo-2" transform="translate(205.000000, 0.000000)">
                    <g id="facebook-1" transform="translate(0.000000, 1.000000)">
                        <g id="Group" transform="translate(20.000000, 20.000000)">
                            <path d="M76.9176452,15.2160682 C75.6926866,15.2160682 74.8096728,15.6282273 73.9142995,16.0481364 L73.9142995,25.5496364 C74.7719078,25.6334773 75.2635392,25.6334773 76.0772028,25.6334773 C79.0173779,25.6334773 79.4204332,24.2518636 79.4204332,22.3228182 L79.4204332,17.7848409 C79.4204332,16.36025 78.9597005,15.2160682 76.9176452,15.2160682 L76.9176452,15.2160682 Z M57.3910922,14.6975227 C55.3510968,14.6975227 54.8855576,15.8466364 54.8855576,17.2698182 L54.8855576,18.0694773 L59.8938802,18.0694773 L59.8938802,17.2698182 C59.8938802,15.8466364 59.428341,14.6975227 57.3910922,14.6975227 Z M19.564318,24.5872273 C19.564318,25.7130909 20.0820415,26.2978636 21.2246037,26.2978636 C22.4502488,26.2978636 23.176023,25.8878182 24.0707097,25.4665 L24.0707097,23.2126591 L21.3907696,23.2126591 C20.1218664,23.2126591 19.564318,23.4550227 19.564318,24.5872273 Z M95.9120553,15.2160682 C93.8686267,15.2160682 93.1607051,16.36025 93.1607051,17.7848409 L93.1607051,22.9836818 C93.1607051,24.4117955 93.8686267,25.5595 95.9120553,25.5595 C97.9499908,25.5595 98.6634055,24.4117955 98.6634055,22.9836818 L98.6634055,17.7848409 C98.6627189,16.36025 97.9493041,15.2160682 95.9120553,15.2160682 L95.9120553,15.2160682 Z M9.55041935,30.4166364 L3.54372811,30.4166364 L3.54372811,15.4985909 L0.542442396,15.4985909 L0.542442396,10.3582273 L3.54441475,10.3582273 L3.54441475,7.27090909 C3.54441475,3.07675 5.23834562,0.583363636 10.0530369,0.583363636 L14.0616175,0.583363636 L14.0616175,5.72513636 L11.5560829,5.72513636 C9.68156682,5.72513636 9.55797235,6.44377273 9.55797235,7.78452273 L9.55041935,10.3575227 L14.0890829,10.3575227 L13.5583134,15.4978864 L9.55041935,15.4978864 L9.55041935,30.4166364 L9.55041935,30.4166364 Z M30.0787742,30.4553864 L25.0725115,30.4553864 L24.8562212,29.1562045 C22.5704101,30.4553864 20.5304147,30.6660455 19.1846083,30.6660455 C15.5131659,30.6660455 13.559,28.1494091 13.559,24.6689545 C13.559,20.5628636 15.839318,19.0974091 19.9186221,19.0974091 L24.0707097,19.0974091 L24.0707097,18.2096818 C24.0707097,16.1136591 23.8365668,15.4985909 20.6952074,15.4985909 L15.5591705,15.4985909 L16.0611014,10.3582273 L21.6750369,10.3582273 C28.5674885,10.3582273 30.0787742,12.5923409 30.0787742,18.25125 L30.0787742,30.4553864 L30.0787742,30.4553864 Z M47.1025392,15.8755227 C43.9872719,15.3273864 43.0925853,15.2069091 41.593659,15.2069091 C38.9013594,15.2069091 38.0876959,15.8163409 38.0876959,18.1624773 L38.0876959,22.6004091 C38.0876959,24.9465455 38.9013594,25.5587955 41.593659,25.5587955 C43.0925853,25.5587955 43.9872719,25.4362045 47.1025392,24.8859545 L47.1025392,29.9002045 C44.3738479,30.5279545 42.5961475,30.6928182 41.093788,30.6928182 C34.6449032,30.6928182 32.0816912,27.2130682 32.0816912,22.1861364 L32.0816912,18.5852045 C32.0816912,13.5540455 34.6449032,10.0679545 41.093788,10.0679545 C42.5961475,10.0679545 44.3738479,10.2335227 47.1025392,10.8640909 L47.1025392,15.8755227 L47.1025392,15.8755227 Z M65.8998848,22.1861364 L54.884871,22.1861364 L54.884871,22.6004091 C54.884871,24.9465455 55.6992212,25.5587955 58.3908341,25.5587955 C60.8105392,25.5587955 62.2874931,25.4362045 65.3972673,24.8859545 L65.3972673,29.9002045 C62.3980415,30.5279545 60.8352581,30.6928182 57.893023,30.6928182 C51.4434516,30.6928182 48.8788664,27.2130682 48.8788664,22.1861364 L48.8788664,18.0687727 C48.8788664,13.6702955 50.7815346,10.0679545 57.3904055,10.0679545 C63.9992765,10.0679545 65.8998848,13.6287273 65.8998848,18.0687727 L65.8998848,22.1861364 L65.8998848,22.1861364 Z M85.4257512,22.28125 C85.4257512,27.1397955 84.0723917,30.6836591 75.8739585,30.6836591 C72.9131843,30.6836591 71.176682,30.4166364 67.9089816,29.9009091 L67.9089816,2.12772727 L73.9136129,1.09979545 L73.9136129,10.8147727 C75.2113548,10.3201818 76.8908664,10.0686591 78.419318,10.0686591 C84.4246359,10.0686591 85.4250645,12.8311818 85.4250645,17.2705227 L85.4250645,22.28125 L85.4257512,22.28125 Z M104.674217,22.3869318 C104.674217,26.5782727 102.987839,30.6435 95.9319677,30.6435 C88.8726636,30.6435 87.1547005,26.5782727 87.1547005,22.3869318 L87.1547005,18.3400227 C87.1547005,14.1465682 88.8726636,10.0806364 95.9319677,10.0806364 C102.987839,10.0806364 104.674217,14.1465682 104.674217,18.3400227 L104.674217,22.3869318 Z M123.909636,22.3869318 C123.909636,26.5782727 122.221198,30.6435 115.1667,30.6435 C108.107396,30.6435 106.389433,26.5782727 106.389433,22.3869318 L106.389433,18.3400227 C106.389433,14.1465682 108.107396,10.0806364 115.1667,10.0806364 C122.221198,10.0806364 123.909636,14.1465682 123.909636,18.3400227 L123.909636,22.3869318 Z M143.649733,30.4166364 L137.141111,30.4166364 L131.63635,20.9877045 L131.63635,30.4166364 L125.629659,30.4166364 L125.629659,2.12702273 L131.63635,1.09909091 L131.63635,19.3108864 L137.141111,10.3582273 L143.649733,10.3582273 L137.640295,20.1281591 L143.649733,30.4166364 L143.649733,30.4166364 Z M115.146101,15.2160682 C113.106106,15.2160682 112.398184,16.36025 112.398184,17.7848409 L112.398184,22.9836818 C112.398184,24.4117955 113.106106,25.5595 115.146101,25.5595 C117.18335,25.5595 117.904318,24.4117955 117.904318,22.9836818 L117.904318,17.7848409 C117.904318,16.36025 117.18335,15.2160682 115.146101,15.2160682 Z M147.078106,26.8981364 C148.089521,26.8981364 148.894945,27.7442955 148.894945,28.8011136 C148.894945,29.8741364 148.088834,30.7111364 147.070553,30.7111364 C146.057078,30.7111364 145.235175,29.8741364 145.235175,28.8011136 C145.235175,27.7442955 146.057078,26.8981364 147.070553,26.8981364 L147.078106,26.8981364 L147.078106,26.8981364 Z M147.070553,27.1940455 C146.255516,27.1940455 145.588793,27.9133864 145.588793,28.8011136 C145.588793,29.7050455 146.256203,30.4152273 147.078106,30.4152273 C147.900696,30.4236818 148.557806,29.7050455 148.557806,28.8095682 C148.557806,27.9140909 147.900696,27.1940455 147.078106,27.1940455 L147.070553,27.1940455 L147.070553,27.1940455 Z M146.725175,29.9086591 L146.39559,29.9086591 L146.39559,27.7851591 C146.568622,27.7605 146.733415,27.7358409 146.980604,27.7358409 C147.29371,27.7358409 147.498327,27.8034773 147.623982,27.8957727 C147.745516,27.9894773 147.810747,28.1325 147.810747,28.3347045 C147.810747,28.6151136 147.630848,28.7835 147.409065,28.8518409 L147.409065,28.8680455 C147.58965,28.9025682 147.712558,29.07025 147.754442,29.3823636 C147.802507,29.7127955 147.852631,29.8389091 147.884903,29.9079545 L147.539525,29.9079545 C147.490774,29.8389091 147.44065,29.6451591 147.399452,29.3654545 C147.351387,29.0956136 147.21818,28.9941591 146.954512,28.9941591 L146.725862,28.9941591 L146.725862,29.9086591 L146.725175,29.9086591 Z M146.725175,28.7334773 L146.964124,28.7334773 C147.234659,28.7334773 147.464682,28.6313182 147.464682,28.3685227 C147.464682,28.1825227 147.334221,27.9972273 146.964124,27.9972273 C146.856323,27.9972273 146.781479,28.0056818 146.725175,28.0134318 L146.725175,28.7334773 Z" id="Shape"></path>
                        </g>
                    </g>
                </g>
            </g>
        </g>
    </g>
</svg>