<?xml version="1.0" encoding="UTF-8"?>
<svg width="145px" height="47px" viewBox="0 0 145 47" version="1.1" xmlns="http://www.w3.org/2000/svg" xmlns:xlink="http://www.w3.org/1999/xlink">
    <!-- Generator: Sketch 47.1 (45422) - http://www.bohemiancoding.com/sketch -->
    <title>Google_2015_logo</title>
    <desc>Created with Sketch.</desc>
    <defs></defs>
    <g id="Page-1" stroke="none" stroke-width="1" fill="none" fill-rule="evenodd">
        <g id="White-Landing-" transform="translate(-156.000000, -705.000000)" fill-rule="nonzero" fill="#91B7DC">
            <g id="Trusted-by-the-best" transform="translate(130.000000, 689.000000)">
                <g id="Logo-1" transform="translate(8.000000, 0.000000)">
                    <g id="Google_2015_logo" transform="translate(18.000000, 16.000000)">
                        <path d="M62,25 C62,31.908927 56.8366292,37 50.5,37 C44.1633708,37 39,31.908927 39,25 C39,18.0423805 44.1633708,13 50.5,13 C56.8366292,13 62,18.0423805 62,25 Z M56.9658427,25 C56.9658427,20.6825969 53.9732584,17.7285843 50.5,17.7285843 C47.0267416,17.7285843 44.0341573,20.6825969 44.0341573,25 C44.0341573,29.2741208 47.0267416,32.2714157 50.5,32.2714157 C53.9732584,32.2714157 56.9658427,29.2687106 56.9658427,25 Z" id="Shape"></path>
                        <path d="M86,25 C86,31.908927 80.8366292,37 74.5,37 C68.1633708,37 63,31.908927 63,25 C63,18.0477908 68.1633708,13 74.5,13 C80.8366292,13 86,18.0423805 86,25 Z M80.9658427,25 C80.9658427,20.6825969 77.9732584,17.7285843 74.5,17.7285843 C71.0267416,17.7285843 68.0341573,20.6825969 68.0341573,25 C68.0341573,29.2741208 71.0267416,32.2714157 74.5,32.2714157 C77.9732584,32.2714157 80.9658427,29.2687106 80.9658427,25 Z" id="Shape"></path>
                        <path d="M112,13.7093259 L112,34.7879496 C112,43.4586642 106.774694,47 100.597366,47 C94.7824553,47 91.2826905,43.1939903 89.962841,40.0814261 L94.5498589,38.2128289 C95.366651,40.1237739 97.3680621,42.378795 100.591957,42.378795 C104.546096,42.378795 106.996472,39.991437 106.996472,35.4972754 L106.996472,33.8086564 L106.812559,33.8086564 C105.633349,35.2326016 103.361477,36.4765686 100.494591,36.4765686 C94.4957667,36.4765686 89,31.3630702 89,24.7832788 C89,18.1558462 94.4957667,13 100.494591,13 C103.356068,13 105.62794,14.243967 106.812559,15.6255644 L106.996472,15.6255644 L106.996472,13.7146193 L112,13.7146193 L112,13.7093259 Z M107.369708,24.7832788 C107.369708,20.6490736 104.551505,17.6264985 100.965193,17.6264985 C97.3301976,17.6264985 94.2848071,20.6490736 94.2848071,24.7832788 C94.2848071,28.8751362 97.3301976,31.8553635 100.965193,31.8553635 C104.551505,31.8553635 107.369708,28.8751362 107.369708,24.7832788 Z" id="Shape"></path>
                        <polygon id="Shape" points="120 1 120 36 115 36 115 1"></polygon>
                        <path d="M140.708629,28.9549143 L144.774138,31.6816952 C143.46199,33.6348061 140.299927,37 134.836226,37 C128.060376,37 123,31.7303877 123,25 C123,17.8638413 128.103398,13 134.250061,13 C140.439746,13 143.467367,17.9558161 144.456857,20.6339044 L145,21.9972949 L129.055243,28.6411181 C130.275972,31.0486925 132.174285,32.276826 134.836226,32.276826 C137.503544,32.276826 139.353459,30.9567178 140.708629,28.9549143 Z M128.194818,24.6375113 L138.853337,20.1848512 C138.267172,18.6862038 136.5033,17.6420198 134.427524,17.6420198 C131.765583,17.6420198 128.060376,20.006312 128.194818,24.6375113 L128.194818,24.6375113 Z" id="Shape"></path>
                        <path d="M18.737595,21.9915796 L18.737595,16.9368467 L35.7478766,16.9368467 C35.9141708,17.8177991 36,18.8599013 36,19.9879501 C36,23.7803426 34.9646848,28.4698026 31.6280733,31.8109756 C28.3826553,35.195122 24.2360304,37 18.7429593,37 C8.56146625,37 0,28.6954123 0,18.5 C0,8.30458769 8.56146625,0 18.7429593,0 C24.3755029,0 28.3880197,2.21312427 31.4027716,5.09770616 L27.8408583,8.66448897 C25.6790344,6.63400116 22.7501118,5.05473287 18.737595,5.05473287 C11.3026375,5.05473287 5.48770675,11.054878 5.48770675,18.5 C5.48770675,25.945122 11.3026375,31.9452671 18.737595,31.9452671 C23.5601252,31.9452671 26.3066607,30.0060976 28.06616,28.2441928 C29.4930711,26.815331 30.4318283,24.7740999 30.8019669,21.9862079 L18.737595,21.9915796 Z" id="Shape"></path>
                    </g>
                </g>
            </g>
        </g>
    </g>
</svg>