<?xml version="1.0" encoding="UTF-8"?>
<svg width="153px" height="29px" viewBox="0 0 153 29" version="1.1" xmlns="http://www.w3.org/2000/svg" xmlns:xlink="http://www.w3.org/1999/xlink">
    <!-- Generator: Sketch 47.1 (45422) - http://www.bohemiancoding.com/sketch -->
    <title>behance-4</title>
    <desc>Created with Sketch.</desc>
    <defs></defs>
    <g id="Page-1" stroke="none" stroke-width="1" fill="none" fill-rule="evenodd">
        <g id="White-Landing-" transform="translate(-943.000000, -714.000000)" fill-rule="nonzero" fill="#91B7DC">
            <g id="Trusted-by-the-best" transform="translate(130.000000, 689.000000)">
                <g id="Logo-5" transform="translate(796.000000, 0.000000)">
                    <g id="behance-4" transform="translate(17.000000, 25.000000)">
                        <path d="M13.1,0 C14.4,0 15.6,0.101 16.7,0.4 C17.8,0.6 18.7,1 19.5,1.5 C20.3,2 20.9,2.7 21.3,3.601 C21.7,4.5 21.9,5.601 21.9,6.801 C21.9,8.2 21.6,9.401 20.9,10.301 C20.3,11.2 19.3,12 18.1,12.6 C19.8,13.1 21.1,13.999 21.9,15.2 C22.7,16.4 23.2,17.9 23.2,19.6 C23.2,20.999 22.9,22.2 22.4,23.2 C21.9,24.2 21.1,25.1 20.2,25.7 C19.3,26.301 18.2,26.801 17,27.1 C15.8,27.399 14.6,27.6 13.4,27.6 L0,27.6 L0,0 L13.1,0 Z M12.3,11.2 C13.4,11.2 14.3,10.9 15,10.4 C15.7,9.9 16,9 16,7.9 C16,7.3 15.9,6.7 15.7,6.3 C15.5,5.9 15.2,5.6 14.8,5.3 C14.4,5.1 14,4.9 13.5,4.8 C13,4.7 12.5,4.7 11.9,4.7 L6.1,4.7 L6.1,11.2 L12.3,11.2 Z M12.6,23 C13.2,23 13.8,22.9 14.3,22.801 C14.8,22.7 15.3,22.5 15.7,22.2 C16.1,21.9 16.4,21.6 16.7,21.1 C16.9,20.6 17.1,19.999 17.1,19.3 C17.1,17.9 16.7,16.9 15.9,16.199 C15.1,15.599 14,15.3 12.7,15.3 L6.1,15.3 L6.1,23 L12.6,23 Z M31.9,22.9 C32.7,23.7 33.9,24.1 35.5,24.1 C36.6,24.1 37.6,23.8 38.4,23.3 C39.2,22.699 39.7,22.1 39.9,21.499 L44.8,21.499 C44,23.899 42.8,25.6 41.2,26.699 C39.6,27.699 37.7,28.3 35.4,28.3 C33.8,28.3 32.4,27.999 31.1,27.499 C29.8,26.999 28.8,26.3 27.9,25.3 C27,24.4 26.3,23.3 25.9,21.999 C25.4,20.699 25.2,19.3 25.2,17.699 C25.2,16.199 25.4,14.8 25.9,13.499 C26.4,12.199 27.1,11.1 28,10.1 C28.9,9.2 30,8.4 31.2,7.9 C32.5,7.4 33.8,7.1 35.4,7.1 C37.1,7.1 38.6,7.4 39.9,8.1 C41.2,8.8 42.2,9.6 43,10.8 C43.8,11.9 44.4,13.199 44.8,14.6 C45,16 45.1,17.4 45,19 L30.5,19 C30.5,20.6 31.1,22.1 31.9,22.9 L31.9,22.9 Z M38.2,12.4 C37.5,11.7 36.4,11.3 35.1,11.3 C34.2,11.3 33.5,11.499 32.9,11.8 C32.3,12.1 31.9,12.499 31.5,12.9 C31.1,13.301 30.9,13.8 30.8,14.3 C30.7,14.8 30.6,15.199 30.6,15.6 L39.6,15.6 C39.4,14.1 38.9,13.1 38.2,12.4 Z M52.8,0 L52.8,10.4 L52.9,10.4 C53.6,9.2 54.5,8.4 55.6,7.9 C56.7,7.4 57.7,7.1 58.8,7.1 C60.3,7.1 61.5,7.3 62.4,7.7 C63.3,8.1 64.1,8.7 64.6,9.4 C65.1,10.1 65.5,11 65.7,12 C65.9,13 66,14.101 66,15.4 L66,27.7 L60.5,27.7 L60.5,16.4 C60.5,14.7 60.2,13.5 59.7,12.7 C59.2,11.9 58.3,11.5 57,11.5 C55.5,11.5 54.4,12 53.8,12.801 C53.1,13.7 52.8,15.2 52.8,17.2 L52.8,27.7 L47.3,27.7 L47.3,0 L52.8,0 Z M70,10.6 C70.6,9.7 71.3,9.1 72.2,8.499 C73.1,7.999 74.1,7.6 75.2,7.399 C76.3,7.199 77.399,7.099 78.5,7.099 C79.5,7.099 80.5,7.199 81.601,7.299 C82.601,7.399 83.601,7.698 84.4,8.099 C85.3,8.498 85.9,9.099 86.501,9.799 C87,10.5 87.3,11.5 87.3,12.7 L87.3,23.2 C87.3,24.1 87.4,25 87.5,25.801 C87.601,26.601 87.899,27.301 88.2,27.7 L82.6,27.7 C82.399,27.5 82.299,27.1 82.2,26.801 C82.1,26.5 82.1,26.101 82.1,25.801 C81.2,26.7 80.2,27.301 79,27.7 C77.8,28.1 76.6,28.2 75.4,28.2 C74.4,28.2 73.6,28.1 72.7,27.801 C71.9,27.601 71.2,27.2 70.5,26.7 C69.9,26.2 69.4,25.6 69,24.801 C68.7,24 68.5,23.2 68.5,22.1 C68.5,20.999 68.7,19.999 69.1,19.3 C69.5,18.6 70,18 70.6,17.5 C71.2,17.101 72,16.7 72.8,16.5 C73.6,16.301 74.4,16.101 75.3,16 L77.7,15.7 C78.5,15.6 79.2,15.5 79.8,15.4 C80.4,15.2 80.9,15 81.3,14.7 C81.7,14.4 81.8,14 81.8,13.4 C81.8,12.8 81.7,12.3 81.5,12 C81.3,11.7 81,11.4 80.7,11.2 C80.399,11 80,10.9 79.6,10.801 C79.2,10.7 78.7,10.7 78.2,10.7 C77.1,10.7 76.3,10.9 75.7,11.4 C75.1,11.9 74.7,12.7 74.6,13.7 L69.1,13.7 C69.1,12.5 69.5,11.4 70,10.6 L70,10.6 Z M80.899,18.4 C80.6,18.5 80.2,18.6 79.799,18.7 C79.399,18.801 78.999,18.801 78.499,18.9 C78.1,19 77.6,19 77.199,19.1 L75.999,19.4 C75.599,19.5 75.199,19.7 74.999,19.9 C74.699,20.1 74.499,20.4 74.299,20.7 C74,21.1 74,21.5 74,22 C74,22.5 74.1,22.9 74.3,23.2 C74.5,23.5 74.7,23.801 75,24 C75.3,24.2 75.7,24.301 76.1,24.4 C76.5,24.499 76.899,24.5 77.399,24.5 C78.5,24.5 79.299,24.301 79.899,24 C80.5,23.601 80.899,23.2 81.2,22.7 C81.5,22.2 81.7,21.7 81.7,21.2 C81.8,20.7 81.8,20.301 81.8,20 L81.8,17.9 C81.5,18.1 81.2,18.301 80.899,18.4 Z M95.601,7.6 L95.601,10.4 L95.701,10.4 C96.4,9.2 97.301,8.4 98.4,7.9 C99.501,7.4 100.701,7.1 101.8,7.1 C103.3,7.1 104.5,7.3 105.4,7.7 C106.4,8.1 107.101,8.7 107.601,9.4 C108.101,10.1 108.5,11 108.8,12 C109,13 109.101,14.101 109.101,15.4 L109.101,27.7 L103.601,27.7 L103.601,16.4 C103.601,14.7 103.3,13.5 102.8,12.7 C102.3,11.9 101.4,11.4 100,11.4 C98.5,11.4 97.399,12 96.7,12.9 C96,13.8 95.7,15.3 95.7,17.3 L95.7,27.8 L90.2,27.8 L90.2,7.6 L95.601,7.6 Z M121.399,11.2 C120.5,11.2 119.799,11.4 119.2,11.801 C118.6,12.2 118.1,12.7 117.7,13.401 C117.3,14.001 117.1,14.701 116.899,15.501 C116.7,16.302 116.7,17.001 116.7,17.802 C116.7,18.501 116.8,19.302 116.899,20.001 C117.1,20.802 117.299,21.401 117.7,22.001 C118.1,22.602 118.5,23.102 119.1,23.501 C119.7,23.901 120.399,24.102 121.299,24.102 C122.6,24.102 123.6,23.702 124.399,23.001 C125.1,22.302 125.6,21.302 125.7,20.001 L131,20.001 C130.601,22.701 129.601,24.701 127.899,26.102 C126.2,27.501 124,28.202 121.299,28.202 C119.799,28.202 118.399,27.902 117.199,27.402 C115.898,26.902 114.898,26.202 113.999,25.302 C113.1,24.402 112.398,23.302 111.898,22.102 C111.398,20.802 111.199,19.501 111.199,18.001 C111.199,16.401 111.398,15.001 111.898,13.701 C112.398,12.401 112.999,11.201 113.898,10.201 C114.798,9.201 115.898,8.501 117.099,7.901 C118.398,7.401 119.798,7.101 121.398,7.101 C122.599,7.101 123.699,7.301 124.798,7.601 C125.897,7.901 126.898,8.401 127.698,9 C128.598,9.601 129.298,10.4 129.798,11.4 C130.298,12.3 130.599,13.5 130.698,14.8 L125.298,14.8 C125.101,12.4 123.8,11.2 121.399,11.2 L121.399,11.2 Z M29.4,1.9 L40.6,1.9 L40.6,4.6 L29.4,4.6 L29.4,1.9 Z M139.3,22.9 C140.101,23.7 141.4,24.1 142.9,24.1 C144.001,24.1 145.001,23.8 145.8,23.3 C146.601,22.699 147.101,22.1 147.3,21.499 L152.101,21.499 C151.3,23.899 150.101,25.6 148.5,26.699 C146.899,27.699 145,28.3 142.7,28.3 C141.1,28.3 139.7,27.999 138.399,27.499 C137.168129,27.0400838 136.069377,26.2847991 135.2,25.3 C134.3,24.4 133.6,23.3 133.2,21.999 C132.7,20.699 132.5,19.3 132.5,17.699 C132.5,16.199 132.7,14.8 133.2,13.499 C133.681664,12.244834 134.393941,11.091963 135.3,10.1 C136.2,9.2 137.3,8.4 138.5,7.9 C139.8,7.4 141.2,7.1 142.7,7.1 C144.399,7.1 145.899,7.4 147.1,8.1 C148.399,8.8 149.399,9.6 150.2,10.8 C151,11.9 151.6,13.199 152,14.6 C152.399,15.999 152.5,17.499 152.399,19.1 L137.899,19.1 C137.899,20.6 138.5,22.1 139.3,22.9 L139.3,22.9 Z M145.7,12.4 C145,11.7 143.899,11.3 142.6,11.3 C141.7,11.3 140.999,11.499 140.399,11.8 C139.799,12.1 139.299,12.499 139,12.9 C138.701,13.301 138.399,13.8 138.3,14.3 C138.201,14.8 138.101,15.199 138.101,15.6 L147.101,15.6 C146.8,14.1 146.3,13.1 145.7,12.4 Z" id="Shape"></path>
                    </g>
                </g>
            </g>
        </g>
    </g>
</svg>